HIERARCHY
ROOT Hips
{
  OFFSET 5.84602e-005 68.8428 3.50346
  CHANNELS 6 Xposition Yposition Zposition Zrotation Xrotation Yrotation
  JOINT Spine
  {
    OFFSET 0 8.597 -4.6522
    CHANNELS 3 Zrotation Xrotation Yrotation
    JOINT Spine1
    {
      OFFSET 0 7.8454 0.4098
      CHANNELS 3 Zrotation Xrotation Yrotation
      JOINT Spine2
      {
        OFFSET 0 9.7078 -2.1609
        CHANNELS 3 Zrotation Xrotation Yrotation
        JOINT Neck
        {
          OFFSET 0 21.8761 -0.4549
          CHANNELS 3 Zrotation Xrotation Yrotation
          JOINT Head
          {
            OFFSET 0 12.3537 3.3602
            CHANNELS 3 Zrotation Xrotation Yrotation
            End Site
            {
              OFFSET 0.0001 18.9506 0.5657
            }
          }
        }
        JOINT LeftShoulder
        {
          OFFSET 2.2086 21.1115 7.2329
          CHANNELS 3 Zrotation Xrotation Yrotation
          JOINT LeftArm
          {
            OFFSET 13.1193 3.0282 -4.8998
            CHANNELS 3 Zrotation Xrotation Yrotation
            JOINT LeftForeArm
            {
              OFFSET 27.4081 -0.0973053 -0.2375
              CHANNELS 3 Zrotation Xrotation Yrotation
              JOINT LeftHand
              {
                OFFSET 22.8641 0.0662994 -0.1369
                CHANNELS 3 Zrotation Xrotation Yrotation
                JOINT LeftHandIndex1
                {
                  OFFSET 8.8614 0.775009 2.4612
                  CHANNELS 3 Zrotation Xrotation Yrotation
                  JOINT LeftHandIndex2
                  {
                    OFFSET 3.3146 -0.808304 0.5841
                    CHANNELS 3 Zrotation Xrotation Yrotation
                    JOINT LeftHandIndex3
                    {
                      OFFSET 2.2628 -0.552002 0.3989
                      CHANNELS 3 Zrotation Xrotation Yrotation
                      End Site
                      {
                        OFFSET 1.6102 -0.4807 0.2612
                      }
                    }
                  }
                }
                JOINT LeftHandMiddle1
                {
                  OFFSET 8.9937 0.895004 0.2143
                  CHANNELS 3 Zrotation Xrotation Yrotation
                  JOINT LeftHandMiddle2
                  {
                    OFFSET 4.0984 0.0113983 -0.0242
                    CHANNELS 3 Zrotation Xrotation Yrotation
                    JOINT LeftHandMiddle3
                    {
                      OFFSET 2.2716 0.00689697 -0.0138001
                      CHANNELS 3 Zrotation Xrotation Yrotation
                      End Site
                      {
                        OFFSET 2.0404 -0.1441 0.0027
                      }
                    }
                  }
                }
                JOINT LeftHandRing1
                {
                  OFFSET 8.5234 0.597198 -2.0164
                  CHANNELS 3 Zrotation Xrotation Yrotation
                  JOINT LeftHandRing2
                  {
                    OFFSET 3.7188 -0.188293 -0.2328
                    CHANNELS 3 Zrotation Xrotation Yrotation
                    JOINT LeftHandRing3
                    {
                      OFFSET 2.1191 -0.106598 -0.1332
                      CHANNELS 3 Zrotation Xrotation Yrotation
                      End Site
                      {
                        OFFSET 1.8737 -0.2304 -0.0886
                      }
                    }
                  }
                }
                JOINT LeftHandPinky1
                {
                  OFFSET 7.9094 -0.601089 -3.4825
                  CHANNELS 3 Zrotation Xrotation Yrotation
                  JOINT LeftHandPinky2
                  {
                    OFFSET 2.2874 -0.477005 -0.6314
                    CHANNELS 3 Zrotation Xrotation Yrotation
                    JOINT LeftHandPinky3
                    {
                      OFFSET 1.6774 -0.349396 -0.4633
                      CHANNELS 3 Zrotation Xrotation Yrotation
                      End Site
                      {
                        OFFSET 1.4888 -0.4091 -0.3416
                      }
                    }
                  }
                }
                JOINT LeftHandThumb1
                {
                  OFFSET 1.833 -1.3875 1.3896
                  CHANNELS 3 Zrotation Xrotation Yrotation
                  JOINT LeftHandThumb2
                  {
                    OFFSET 3.4129 -1.121 2.5732
                    CHANNELS 3 Zrotation Xrotation Yrotation
                    JOINT LeftHandThumb3
                    {
                      OFFSET 2.2474 -0.804199 1.6192
                      CHANNELS 3 Zrotation Xrotation Yrotation
                      End Site
                      {
                        OFFSET 1.6527 -0.5689 1.1317
                      }
                    }
                  }
                }
              }
            }
          }
        }
        JOINT RightShoulder
        {
          OFFSET -2.2086 21.1115 7.2329
          CHANNELS 3 Zrotation Xrotation Yrotation
          JOINT RightArm
          {
            OFFSET -13.1216 3.0287 -4.9007
            CHANNELS 3 Zrotation Xrotation Yrotation
            JOINT RightForeArm
            {
              OFFSET -27.4081 -0.0973053 -0.2375
              CHANNELS 3 Zrotation Xrotation Yrotation
              JOINT RightHand
              {
                OFFSET -22.8641 0.0664063 -0.1369
                CHANNELS 3 Zrotation Xrotation Yrotation
                JOINT RightHandIndex1
                {
                  OFFSET -8.8614 0.774994 2.4612
                  CHANNELS 3 Zrotation Xrotation Yrotation
                  JOINT RightHandIndex2
                  {
                    OFFSET -3.3146 -0.808304 0.5841
                    CHANNELS 3 Zrotation Xrotation Yrotation
                    JOINT RightHandIndex3
                    {
                      OFFSET -2.2628 -0.552002 0.3989
                      CHANNELS 3 Zrotation Xrotation Yrotation
                      End Site
                      {
                        OFFSET -1.6102 -0.4807 0.2612
                      }
                    }
                  }
                }
                JOINT RightHandMiddle1
                {
                  OFFSET -8.9937 0.894989 0.2143
                  CHANNELS 3 Zrotation Xrotation Yrotation
                  JOINT RightHandMiddle2
                  {
                    OFFSET -4.0984 0.0113983 -0.0242
                    CHANNELS 3 Zrotation Xrotation Yrotation
                    JOINT RightHandMiddle3
                    {
                      OFFSET -2.2716 0.00691223 -0.0138001
                      CHANNELS 3 Zrotation Xrotation Yrotation
                      End Site
                      {
                        OFFSET -2.0404 -0.1441 0.0027
                      }
                    }
                  }
                }
                JOINT RightHandRing1
                {
                  OFFSET -8.5234 0.597198 -2.0164
                  CHANNELS 3 Zrotation Xrotation Yrotation
                  JOINT RightHandRing2
                  {
                    OFFSET -3.7188 -0.188309 -0.2328
                    CHANNELS 3 Zrotation Xrotation Yrotation
                    JOINT RightHandRing3
                    {
                      OFFSET -2.1191 -0.106598 -0.1332
                      CHANNELS 3 Zrotation Xrotation Yrotation
                      End Site
                      {
                        OFFSET -1.8737 -0.2304 -0.0886
                      }
                    }
                  }
                }
                JOINT RightHandPinky1
                {
                  OFFSET -7.9094 -0.601105 -3.4825
                  CHANNELS 3 Zrotation Xrotation Yrotation
                  JOINT RightHandPinky2
                  {
                    OFFSET -2.2874 -0.477005 -0.6314
                    CHANNELS 3 Zrotation Xrotation Yrotation
                    JOINT RightHandPinky3
                    {
                      OFFSET -1.6774 -0.349396 -0.4633
                      CHANNELS 3 Zrotation Xrotation Yrotation
                      End Site
                      {
                        OFFSET -1.4888 -0.4091 -0.3416
                      }
                    }
                  }
                }
                JOINT RightHandThumb1
                {
                  OFFSET -1.833 -1.38751 1.3896
                  CHANNELS 3 Zrotation Xrotation Yrotation
                  JOINT RightHandThumb2
                  {
                    OFFSET -3.41299 -1.12099 2.5732
                    CHANNELS 3 Zrotation Xrotation Yrotation
                    JOINT RightHandThumb3
                    {
                      OFFSET -2.24741 -0.804108 1.6192
                      CHANNELS 3 Zrotation Xrotation Yrotation
                      End Site
                      {
                        OFFSET -1.6527 -0.5689 1.1317
                      }
                    }
                  }
                }
              }
            }
          }
        }
      }
    }
  }
  JOINT RightUpLeg
  {
    OFFSET -9.1966 3.8861 -0.7581
    CHANNELS 3 Zrotation Xrotation Yrotation
    JOINT RightLeg
    {
      OFFSET -0.7359 -41.0265 0
      CHANNELS 3 Zrotation Xrotation Yrotation
      JOINT RightFoot
      {
        OFFSET 0 -40.2855 0
        CHANNELS 3 Zrotation Xrotation Yrotation
        JOINT RightToeBase
        {
          OFFSET 0 -5.6122 11.7359
          CHANNELS 3 Zrotation Xrotation Yrotation
          End Site
          {
            OFFSET 0 0 7.8731
          }
        }
      }
    }
  }
  JOINT LeftUpLeg
  {
    OFFSET 9.1965 3.8864 -0.7581
    CHANNELS 3 Zrotation Xrotation Yrotation
    JOINT LeftLeg
    {
      OFFSET 0.7359 -41.0268 0
      CHANNELS 3 Zrotation Xrotation Yrotation
      JOINT LeftFoot
      {
        OFFSET 0 -40.2855 0
        CHANNELS 3 Zrotation Xrotation Yrotation
        JOINT LeftToeBase
        {
          OFFSET 0 -5.6122 11.7359
          CHANNELS 3 Zrotation Xrotation Yrotation
          End Site
          {
            OFFSET 0 0 7.8731
          }
        }
      }
    }
  }
}
MOTION
Frames:	5
Frame Time:	0.0333333
5.84602e-005 68.8428 3.50346 0 0 -0 0 0 -0 0 0 -0 0 0 -0 0 0 -0 0 0 -0 0 0 -0 0 0 -0 0 0 -0 0 0 -0 0 0 -0 0 0 -0 0 0 -0 0 0 -0 -0.0146107 -8.87603e-005 -2.63497e-007 2.99804e-018 -2.42657e-020 -1.42182e-022 0 0 -0 -0.0187562 -0.001176 5.858e-005 5.06224e-018 3.88251e-019 1.21329e-020 0 0 -0 -0.012269 -0.00324817 0.000675346 -1.74678e-018 3.88251e-019 -0 0 0 -0 0 0 -0 0 0 -0 0 0 -0 0 0 -0 0 0 -0 0 0 -0 0 0 -0 0 0 -0 0 0 -0 0 0 -0 0.0149955 -9.10982e-005 2.64101e-007 -9.69331e-018 1.21329e-020 -4.7394e-023 0 0 -0 0.0189956 -0.00119102 -5.96516e-005 -5.41541e-019 0 2.42657e-020 0 0 -0 0.0122698 -0.00324857 -0.000673756 -2.00796e-019 0 -1.94126e-019 0 0 -0 0 0 -0 0 0 -0 3.39842 1.33031 -0.0637918 -5.65207e-008 0.834868 -0.000436188 -3.39935 -2.16518 -0.0642563 -8.89002e-024 -1.18485e-023 -1.48106e-024 -3.39844 1.35642 0.0640283 -3.18788e-007 0.782166 -0.000588827 3.39931 -2.13858 0.0634662 1.1399e-023 0 -0 
-25.4905 2.08823 0.402939 -6.28251e-015 6.97819e-015 173.994 0.965824 -0.0154938 -5.80048 1.92512 -0.128607 -11.5999 1.92513 -0.128607 -11.5999 7.00696e-005 -13.0003 -6.02501e-006 13.328 -12.6628 -27.0305 -47.4805 10.5955 -19.8968 -28.9218 9.39153 -18.3018 -15.5056 3.89638 -61.4559 -7.00032 -9.34163e-006 3.05564e-006 1.90943e-007 -3.17752e-008 -1.83615e-007 1.14566e-007 -1.90651e-008 -1.10169e-007 1.52755e-007 -2.54201e-008 -1.46892e-007 1.90943e-007 -3.17752e-008 -1.83615e-007 -0.0146037 -9.0882e-005 -7.59572e-007 1.52754e-007 -2.54014e-008 -1.46895e-007 1.90943e-007 -3.17752e-008 -1.83615e-007 -0.0187554 -0.00118136 5.96788e-005 1.52753e-007 -2.53962e-008 -1.46897e-007 1.90943e-007 -3.17752e-008 -1.83615e-007 -0.0123108 -0.00325271 0.000680837 1.5275e-007 -2.54053e-008 -1.46899e-007 1.90943e-007 -3.17752e-008 -1.83615e-007 1.14566e-007 -1.90651e-008 -1.10169e-007 1.52755e-007 -2.54201e-008 -1.46892e-007 14.1581 0.305499 16.5812 4.87993 0.262277 21.4928 16.6566 6.82057 46.3275 15.9631 -4.34436 39.8422 -1.59028e-015 -1.67973e-014 -3.97569e-016 -1.59028e-015 -3.67752e-015 -1.59028e-015 -1.86212e-031 -6.70898e-015 -1.59028e-015 -1.59028e-015 -1.67973e-014 -3.97569e-016 0.0149754 -9.76182e-005 -9.00167e-006 1.59028e-015 2.28602e-015 -3.97569e-016 -1.59028e-015 -1.67973e-014 -3.97569e-016 0.0190229 -0.00119594 -6.1689e-005 8.08165e-007 2.69239e-007 2.23938e-007 -1.59028e-015 -1.67973e-014 -3.97569e-016 0.0122588 -0.00325316 -0.000678913 4.9484e-031 1.42628e-014 -1.98785e-015 -1.59028e-015 -1.67973e-014 -3.97569e-016 -1.59028e-015 -3.67752e-015 -1.59028e-015 -1.86212e-031 -6.70898e-015 -1.59028e-015 -168.21 -77.2855 -170.151 4.02441 51.6655 -5.42146 -18.9007 18.0235 7.45108 2.02897e-006 1.85249e-006 -1.19151e-006 92.3999 -69.5285 123.113 -47.3121 44.0344 38.9274 57.4852 24.9564 -45.6343 2.2621e-008 7.626e-007 1.72444e-006 
-25.4905 2.08823 0.402939 -6.28251e-015 6.97819e-015 173.994 0.965825 -0.015492 -5.80048 1.92512 -0.128607 -11.5999 1.92513 -0.128607 -11.5999 0.00682749 -12.9314 0.110059 13.328 -12.6628 -27.0305 -47.4805 10.5955 -19.8968 -28.9217 9.39154 -18.3018 -15.5056 3.89638 -61.4559 -7.00032 -1.2961e-005 2.56094e-006 1.52755e-007 -2.54202e-008 -1.46892e-007 -2.67321e-007 4.44853e-008 2.57061e-007 -4.34812e-007 -2.19512e-008 -7.5791e-007 1.52755e-007 -2.54202e-008 -1.46892e-007 -0.0146009 -9.09704e-005 1.24301e-006 -4.34826e-007 -2.18547e-008 -7.57913e-007 1.52755e-007 -2.54202e-008 -1.46892e-007 -0.0187555 -0.00118142 5.86628e-005 -4.34837e-007 -2.1828e-008 -7.57909e-007 1.52755e-007 -2.54202e-008 -1.46892e-007 -0.0122662 -0.00324711 0.000679074 -4.34845e-007 -2.18704e-008 -7.57899e-007 1.52755e-007 -2.54202e-008 -1.46892e-007 -2.67321e-007 4.44853e-008 2.57061e-007 -4.34812e-007 -2.19512e-008 -7.5791e-007 14.1581 0.305499 16.5812 4.87993 0.262277 21.4928 16.6566 6.82056 46.3275 16.1201 -4.65706 39.6814 3.44836e-034 4.96962e-017 -3.97569e-016 3.44836e-034 4.96962e-017 -3.97569e-016 -1.59028e-015 -3.08116e-015 -3.97569e-016 3.44836e-034 4.96962e-017 -3.97569e-016 0.0149987 -9.77889e-005 3.36564e-007 4.77083e-015 5.36719e-015 -3.97569e-016 3.44836e-034 4.96962e-017 -3.97569e-016 0.0189857 -0.00119127 -7.27267e-005 1.59028e-015 5.91384e-015 -3.97569e-016 3.44836e-034 4.96962e-017 -3.97569e-016 0.0122409 -0.00323722 -0.000675637 -4.06907e-032 -2.93207e-015 -7.95139e-016 3.44836e-034 4.96962e-017 -3.97569e-016 3.44836e-034 4.96962e-017 -3.97569e-016 -1.59028e-015 -3.08116e-015 -3.97569e-016 -168.21 -77.2855 -170.151 4.02441 51.6655 -5.42146 -18.9007 18.0235 7.45108 2.02897e-006 1.85249e-006 -1.19151e-006 92.3999 -69.5285 123.113 -47.312 44.0344 38.9273 57.4852 24.9565 -45.6343 2.32217e-006 1.32824e-006 1.69829e-006 
-25.4905 2.08823 0.402939 -6.28251e-015 6.97819e-015 173.994 0.965825 -0.015492 -5.80048 1.92512 -0.128607 -11.5999 1.92513 -0.128607 -11.5999 0.0134209 -12.8624 0.220037 13.328 -12.6628 -27.0305 -47.4805 10.5955 -19.8968 -28.9217 9.39154 -18.3018 -15.5056 3.89638 -61.4559 -7.00032 -1.2961e-005 2.56094e-006 1.52755e-007 -2.54202e-008 -1.46892e-007 -2.67321e-007 4.44853e-008 2.57061e-007 -4.34812e-007 -2.19512e-008 -7.5791e-007 1.52755e-007 -2.54202e-008 -1.46892e-007 -0.0146009 -9.09704e-005 1.24301e-006 -4.34826e-007 -2.18547e-008 -7.57913e-007 1.52755e-007 -2.54202e-008 -1.46892e-007 -0.0187555 -0.00118142 5.86628e-005 -4.34837e-007 -2.1828e-008 -7.57909e-007 1.52755e-007 -2.54202e-008 -1.46892e-007 -0.0122662 -0.00324711 0.000679074 -4.34845e-007 -2.18704e-008 -7.57899e-007 1.52755e-007 -2.54202e-008 -1.46892e-007 -2.67321e-007 4.44853e-008 2.57061e-007 -4.34812e-007 -2.19512e-008 -7.5791e-007 14.1581 0.305499 16.5812 4.87993 0.262277 21.4928 16.6566 6.82056 46.3275 16.2766 -4.97058 39.5213 -1.59028e-015 4.82053e-015 -1.19271e-015 -1.59028e-015 -4.52235e-015 -1.59028e-015 -1.59028e-015 5.26779e-015 -7.95139e-016 -1.59028e-015 4.82053e-015 -1.19271e-015 0.0150016 -8.52195e-005 -2.52517e-006 -7.93315e-007 -2.07441e-007 -1.87006e-007 -1.59028e-015 4.82053e-015 -1.19271e-015 0.0189997 -0.00119452 -5.93583e-005 1.59028e-015 5.56597e-015 -3.97569e-016 -1.59028e-015 4.82053e-015 -1.19271e-015 0.0122836 -0.00325302 -0.00067739 1.59028e-015 -6.21202e-015 3.97569e-016 -1.59028e-015 4.82053e-015 -1.19271e-015 -1.59028e-015 -4.52235e-015 -1.59028e-015 -1.59028e-015 5.26779e-015 -7.95139e-016 -168.21 -77.2855 -170.151 4.02441 51.6655 -5.42146 -18.9007 18.0235 7.45108 2.02897e-006 1.85249e-006 -1.19151e-006 92.3999 -69.5285 123.113 -47.312 44.0344 38.9273 57.4852 24.9565 -45.6343 2.32217e-006 1.32824e-006 1.69829e-006 
-25.4905 2.08823 0.402939 -6.28251e-015 6.97819e-015 173.994 0.965825 -0.015492 -5.80048 1.92512 -0.128607 -11.5999 1.92513 -0.128607 -11.5999 0.0198765 -12.7934 0.330038 13.328 -12.6628 -27.0305 -47.4805 10.5955 -19.8968 -28.9217 9.39154 -18.3018 -15.5056 3.89638 -61.4559 -7.00032 -1.2961e-005 2.56094e-006 1.52755e-007 -2.54202e-008 -1.46892e-007 -2.67321e-007 4.44853e-008 2.57061e-007 -4.34812e-007 -2.19512e-008 -7.5791e-007 1.52755e-007 -2.54202e-008 -1.46892e-007 -0.0146009 -9.09704e-005 1.24301e-006 -4.34826e-007 -2.18547e-008 -7.57913e-007 1.52755e-007 -2.54202e-008 -1.46892e-007 -0.0187555 -0.00118142 5.86628e-005 -4.34837e-007 -2.1828e-008 -7.57909e-007 1.52755e-007 -2.54202e-008 -1.46892e-007 -0.0122662 -0.00324711 0.000679074 -4.34845e-007 -2.18704e-008 -7.57899e-007 1.52755e-007 -2.54202e-008 -1.46892e-007 -2.67321e-007 4.44853e-008 2.57061e-007 -4.34812e-007 -2.19512e-008 -7.5791e-007 14.1581 0.305499 16.5812 4.87993 0.262277 21.4928 16.6566 6.82056 46.3275 16.4324 -5.28489 39.3617 8.89678e-032 6.41081e-015 -7.95139e-016 1.59028e-015 3.18055e-015 -7.95139e-016 1.59028e-015 -1.49089e-016 -2.38542e-015 8.89678e-032 6.41081e-015 -7.95139e-016 0.0149822 -9.35248e-005 1.07174e-006 -0 -4.91992e-015 -0 8.89678e-032 6.41081e-015 -7.95139e-016 0.0189665 -0.00118911 -5.62686e-005 -3.18055e-015 -2.01269e-014 -7.95139e-016 8.89678e-032 6.41081e-015 -7.95139e-016 0.0122987 -0.00325765 -0.000682867 1.59028e-015 -6.11263e-015 3.97569e-016 8.89678e-032 6.41081e-015 -7.95139e-016 1.59028e-015 3.18055e-015 -7.95139e-016 1.59028e-015 -1.49089e-016 -2.38542e-015 -168.21 -77.2855 -170.151 4.02441 51.6655 -5.42146 -18.9007 18.0235 7.45108 2.02897e-006 1.85249e-006 -1.19151e-006 92.3999 -69.5285 123.113 -47.312 44.0344 38.9273 57.4852 24.9565 -45.6343 2.32217e-006 1.32824e-006 1.69829e-006 
